<?xml version="1.0" encoding="UTF-8" standalone="no"?>
<svg
   xmlns:dc="http://purl.org/dc/elements/1.1/"
   xmlns:cc="http://creativecommons.org/ns#"
   xmlns:rdf="http://www.w3.org/1999/02/22-rdf-syntax-ns#"
   xmlns:svg="http://www.w3.org/2000/svg"
   xmlns="http://www.w3.org/2000/svg"
   xmlns:sodipodi="http://sodipodi.sourceforge.net/DTD/sodipodi-0.dtd"
   xmlns:inkscape="http://www.inkscape.org/namespaces/inkscape"
   version="1.1"
   viewBox="0 0 475.33 631.62"
   id="svg6"
   sodipodi:docname="phake-white.svg"
   inkscape:version="0.92.1 r15371">
  <defs
     id="defs10" />
  <sodipodi:namedview
     pagecolor="#ffffff"
     bordercolor="#666666"
     borderopacity="1"
     objecttolerance="10"
     gridtolerance="10"
     guidetolerance="10"
     inkscape:pageopacity="0"
     inkscape:pageshadow="2"
     inkscape:window-width="1600"
     inkscape:window-height="825"
     id="namedview8"
     showgrid="false"
     viewbox-x="0.2"
     inkscape:pagecheckerboard="true"
     inkscape:zoom="0.37364238"
     inkscape:cx="397.10905"
     inkscape:cy="628.94468"
     inkscape:window-x="0"
     inkscape:window-y="24"
     inkscape:window-maximized="1"
     inkscape:current-layer="svg6" />
  <metadata
     id="metadata2">
    <rdf:RDF>
      <cc:Work
         rdf:about="">
        <dc:format>image/svg+xml</dc:format>
        <dc:type
           rdf:resource="http://purl.org/dc/dcmitype/StillImage" />
        <dc:title></dc:title>
      </cc:Work>
    </rdf:RDF>
  </metadata>
  <path
     d="m158.83 587.95v-81.886c105.39-61.198 210.78-122.4 316.17-183.59l0.32543-94.625c-130.19-75.948-390.56-227.84-390.56-227.84l-84.6 47.609-0.16768 535.66 76.947 48.352c27.295-14.558 54.59-29.116 81.886-43.673zm278.41-355.62-280.3 168.29 0.13356-53.645 188.83-112.51-308.74-182.48 43.697-24.219zm-135.37 1.4949-46.281 26.079-190.34-109.46v446.86l-42.698-28.075c0.11643-162.91 0.71497-488.71 0.71497-488.71zm-208.55-38.928 38.083 23.59-0.0607 223.24 317.92-185.29-0.9915 54.104-315.18 182.57-1e-3 80.801-42.113 23.396zm135.7 77.207-71.942 43.867-0.51949-84.16z"
     id="path4"
     fill="#fff" />
</svg>
